<?xml version="1.0" encoding="UTF-8" standalone="no"?>
<svg xmlns:dc="http://purl.org/dc/elements/1.1/" xmlns:cc="http://creativecommons.org/ns#" xmlns:rdf="http://www.w3.org/1999/02/22-rdf-syntax-ns#" xmlns:svg="http://www.w3.org/2000/svg" xmlns="http://www.w3.org/2000/svg" xmlns:sodipodi="http://sodipodi.sourceforge.net/DTD/sodipodi-0.dtd" xmlns:inkscape="http://www.inkscape.org/namespaces/inkscape" inkscape:version="1.0 (4035a4fb49, 2020-05-01)" sodipodi:docname="arrows.svg" id="svg24" viewBox="0 0 12.698182 12.698182" version="1.1" height="48" width="48">
    <defs id="defs19" />
    <metadata id="metadata30">
        <rdf:RDF>
            <cc:Work rdf:about="">
                <dc:format>image/svg+xml</dc:format>
                <dc:type rdf:resource="http://purl.org/dc/dcmitype/StillImage" />
                <dc:title></dc:title>
            </cc:Work>
        </rdf:RDF>
    </metadata>
    <style id="current-color-scheme" type="text/css">
        .ColorScheme-Text {
            color: #dedede;
        }
    </style>
    <sodipodi:namedview inkscape:document-rotation="0" inkscape:current-layer="svg24" inkscape:window-maximized="1" inkscape:window-y="-8" inkscape:window-x="-8" inkscape:cy="35.133044" inkscape:cx="31.599512" inkscape:zoom="10.727273" showgrid="true" id="namedview26" inkscape:window-height="1017" inkscape:window-width="1920" inkscape:pageshadow="2" inkscape:pageopacity="0" guidetolerance="10" gridtolerance="10" objecttolerance="10" borderopacity="1" bordercolor="#666666" pagecolor="#c8c8c8">
        <inkscape:grid id="grid824" type="xygrid" />
    </sodipodi:namedview>
    <g transform="matrix(0.26454545,0,0,0.26454545,3.4390911,2e-7)" id="up-arrow">
        <rect style="opacity:0;fill:#7d7d7d;fill-opacity:1;stroke:none" id="rect2992" width="22" height="22" x="0" y="0" />
        <path class="ColorScheme-Text" fill="currentColor" inkscape:connector-curvature="0" style="fill-opacity:1;stroke-width:1.29099" d="M 5,13 5.5595491,13.559549 6,14 l 5,-5 5,5 1,-1 -6,-6 z" id="path5477-8" sodipodi:nodetypes="cccccccc" />
    </g>
    <g transform="matrix(0.26454545,0,0,0.26454545,6.878182,3.439091)" id="right-arrow">
        <rect y="0" x="0" height="22" width="22" id="rect3772" style="opacity:0;fill:#7d7d7d;fill-opacity:1;stroke:none" />
        <path fill="currentColor" sodipodi:nodetypes="ccccccc" id="path3774" d="M 8,17 7,16 12,11 7,6 8,5 l 6,6 z" style="fill-opacity:1" inkscape:connector-curvature="0" class="ColorScheme-Text" />
    </g>
    <g transform="matrix(0.26454545,0,0,0.26454545,3.4390911,6.8781819)" id="down-arrow">
        <rect style="opacity:0;fill:#7d7d7d;fill-opacity:1;stroke:none" id="rect3780" width="22" height="22" x="0" y="0" />
        <path class="ColorScheme-Text" fill="currentColor" inkscape:connector-curvature="0" style="fill-opacity:1" d="m 5,8 1,-1 5,5 5,-5 1,1 -6,6 z" id="path3782" sodipodi:nodetypes="ccccccc" />
    </g>
    <g transform="matrix(0.26454545,0,0,0.26454545,9e-8,3.439091)" id="left-arrow">
        <rect y="0" x="0" height="22" width="22" id="rect3788" style="opacity:0;fill:#7d7d7d;fill-opacity:1;stroke:none" />
        <path fill="currentColor" sodipodi:nodetypes="ccccccc" id="path3790" d="M 14,17 15,16 10,11 15,6 14,5 8,11 Z" style="fill-opacity:1" inkscape:connector-curvature="0" class="ColorScheme-Text" />
    </g>
</svg>
