<?xml version="1.0" encoding="UTF-8" standalone="no"?>
<svg xmlns:dc="http://purl.org/dc/elements/1.1/" xmlns:cc="http://creativecommons.org/ns#" xmlns:rdf="http://www.w3.org/1999/02/22-rdf-syntax-ns#" xmlns:svg="http://www.w3.org/2000/svg" xmlns="http://www.w3.org/2000/svg" xmlns:sodipodi="http://sodipodi.sourceforge.net/DTD/sodipodi-0.dtd" xmlns:inkscape="http://www.inkscape.org/namespaces/inkscape" width="128" height="128" version="1" id="svg29" sodipodi:docname="scrollwidget.svg" inkscape:version="1.0 (4035a4fb49, 2020-05-01)">
    <defs id="defs23" />
    <metadata id="metadata35">
        <rdf:RDF>
            <cc:Work rdf:about="">
                <dc:format>image/svg+xml</dc:format>
                <dc:type rdf:resource="http://purl.org/dc/dcmitype/StillImage" />
                <dc:title />
            </cc:Work>
        </rdf:RDF>
    </metadata>
    <sodipodi:namedview inkscape:document-rotation="0" pagecolor="#ffffff" bordercolor="#666666" borderopacity="1" objecttolerance="10" gridtolerance="10" guidetolerance="10" inkscape:pageopacity="0" inkscape:pageshadow="2" inkscape:window-width="1920" inkscape:window-height="1017" id="namedview31" showgrid="false" inkscape:zoom="3.3203125" inkscape:cx="80.575308" inkscape:cy="99.990773" inkscape:window-x="-8" inkscape:window-y="-8" inkscape:window-maximized="1" inkscape:current-layer="borders" />
    <g id="borders">
        <g id="border-top" transform="matrix(0.1444413,0,0,1,7.6889401,-99.922096)">
            <rect fill="none" width="747.70898" height="1" x="16" y="-109" transform="scale(1,-1)" id="rect2" />
            <rect fill="none" width="747.70898" height="1" x="16" y="-110" transform="scale(1,-1)" id="rect4" />
        </g>
        <rect fill="none" id="border-center" width="64.25" height="61.5" x="33.5" y="33.5" />
        <rect fill="none" id="border-topleft" width="8.5819998" height="9.2110004" x="-10.87" y="-11.23" transform="scale(-1)" />
        <rect fill="none" id="border-bottomleft" width="8.5819998" height="9.2110004" x="-10.87" y="-126.84" transform="scale(-1)" />
        <rect fill="none" id="border-topright" width="8.5819998" height="9.2110004" x="-126.13" y="-11.23" transform="scale(-1)" />
        <rect fill="none" id="border-bottomright" width="8.5819998" height="9.2110004" x="-126.13" y="-126.84" transform="scale(-1)" />
        <g id="border-left" transform="matrix(0,-0.1444413,1,0,-100.15432,123.01818)">
            <rect fill="none" width="747.70898" height="1" x="16" y="-109" transform="scale(1,-1)" id="rect12" />
            <rect fill="none" width="747.70898" height="1" x="16" y="-110" transform="scale(1,-1)" id="rect14" />
        </g>
        <g id="border-bottom" transform="matrix(-0.1444413,0,0,-1,118.89686,231.56855)">
            <rect fill="none" width="747.70898" height="1" x="16" y="-109" transform="scale(1,-1)" id="rect17" />
            <rect fill="none" width="747.70898" height="1" x="16" y="-110" transform="scale(1,-1)" id="rect19" />
        </g>
        <g id="border-right" transform="matrix(0,0.1444413,-1,0,227.80078,12.163813)">
            <rect fill="none" width="747.70898" height="1" x="16" y="-109" transform="scale(1,-1)" id="rect22" />
            <rect fill="none" width="747.70898" height="1" x="16" y="-110" transform="scale(1,-1)" id="rect24" />
        </g>
    </g>
</svg>
