<?xml version="1.0" encoding="UTF-8" standalone="no"?>
<svg xmlns:dc="http://purl.org/dc/elements/1.1/" xmlns:cc="http://creativecommons.org/ns#" xmlns:rdf="http://www.w3.org/1999/02/22-rdf-syntax-ns#" xmlns:svg="http://www.w3.org/2000/svg" xmlns="http://www.w3.org/2000/svg" xmlns:sodipodi="http://sodipodi.sourceforge.net/DTD/sodipodi-0.dtd" xmlns:inkscape="http://www.inkscape.org/namespaces/inkscape" inkscape:version="1.0 (4035a4fb49, 2020-05-01)" sodipodi:docname="tabbar.svg" version="1.1" height="130" width="225" id="svg97">
    <defs id="defs103" />
    <metadata id="metadata81">
        <rdf:RDF>
            <cc:Work rdf:about="">
                <dc:format>image/svg+xml</dc:format>
                <dc:type rdf:resource="http://purl.org/dc/dcmitype/StillImage" />
                <dc:title />
            </cc:Work>
        </rdf:RDF>
    </metadata>
    <sodipodi:namedview inkscape:current-layer="south-active-tab-bottomleft" inkscape:window-maximized="1" inkscape:window-y="-8" inkscape:window-x="-8" inkscape:cy="83.208549" inkscape:cx="174.40567" inkscape:zoom="2.8284271" showgrid="true" id="namedview79" inkscape:window-height="1017" inkscape:window-width="1920" inkscape:pageshadow="2" inkscape:pageopacity="0" guidetolerance="10" gridtolerance="10" objecttolerance="10" borderopacity="1" bordercolor="#666666" pagecolor="#ffffff" inkscape:document-rotation="0">
        <inkscape:grid id="grid83" type="xygrid" />
    </sodipodi:namedview>
    <style type="text/css" id="current-color-scheme">
        .ColorScheme-Highlight {
            color: #3daee9;
        }
    </style>
    <rect y="0" x="0" height="40" width="40" style="opacity:0.875;fill:#ff00ff;stroke-width:0.969889" id="hint-tile-center" />
    <rect transform="scale(-1)" y="-66" x="-110" height="12" width="10" style="fill:none" id="south-active-tab-right" />
    <rect transform="scale(-1)" y="-66" x="-100" height="12" width="80" style="fill:none" id="south-active-tab-center" />
    <rect transform="scale(-1)" y="-66" x="-20" height="12" width="10" style="fill:none" id="south-active-tab-left" />
    <rect transform="scale(-1)" y="-54" x="-20" height="4" width="10" style="fill:none" id="south-active-tab-topleft" />
    <rect transform="scale(-1)" y="-54" x="-100" height="4" width="80" style="fill:none" id="south-active-tab-top" />
    <rect transform="scale(-1)" y="-54" x="-110" height="4" width="10" style="fill:none" id="south-active-tab-topright" />
    <rect transform="scale(-1)" y="-63" x="-110" height="5" width="6" style="fill:#ff00ff" id="south-focus-hint-right-margin" />
    <rect transform="scale(-1)" y="-63" x="-16" height="5" width="6" style="fill:#ff00ff" id="south-focus-hint-left-margin" />
    <g transform="matrix(1,0,0,0.66666667,-20,-173.57479)" id="south-active-tab-bottom">
        <path d="m 40,359.36218 h 80 v 3 H 40 Z" class="ColorScheme-Highlight" style="fill:currentColor" id="path70" />
    </g>
    <rect transform="scale(-1)" y="-68" x="-56" height="8" width="5" style="fill:#ff00ff" id="south-focus-hint-bottom-margin" />
    <rect transform="scale(-1)" y="-54" x="-56" height="4" width="5" style="fill:#ff00ff" id="south-focus-hint-top-margin" />
    <g transform="matrix(1,0,0,0.66617489,-20,-173.3966)" id="south-active-tab-bottomleft">
        <rect y="359.35999" x="30" height="3.0022147" width="10" style="fill:none;stroke-width:1.00037" id="rect75" />
        <path d="m 39.999989,359.36013 v 3.00207 C 36.590042,362.3622 33,362.36208 33,362.36208 c 0,0 -6e-6,-0.85296 -1.1e-5,-1.50092 4e-6,-0.61142 1.1e-5,-1.50117 1.1e-5,-1.50117 0,0 7,0 6.999989,1.4e-4 z" class="ColorScheme-Highlight" style="fill:currentColor;stroke-width:1.00035" id="path77" />
    </g>
    <g transform="matrix(1,0,0,0.66617489,-263,-85.461522)" id="south-active-tab-bottomright">
        <rect y="227.36" x="363" height="3.0022147" width="10" style="fill:none;stroke-width:1.00037" id="rect82" />
        <path d="m 363,227.36015 c 4.05485,-2e-5 7,-1.5e-4 7,-1.5e-4 0,0 0,1.01453 0,1.50116 0,0.61211 0,1.50092 0,1.50092 0,0 -3.44673,1.2e-4 -7,1.3e-4 z" class="ColorScheme-Highlight" style="fill:currentColor;stroke-width:1.00035" id="path84" />
    </g>
    <rect transform="scale(-1)" y="-66" x="-220" height="12" width="10" style="fill:none" id="north-active-tab-right" />
    <rect transform="scale(-1)" y="-66" x="-210" height="12" width="80" style="fill:none" id="north-active-tab-center" />
    <rect transform="scale(-1)" y="-66" x="-130" height="12" width="10" style="fill:none" id="north-active-tab-left" />
    <rect transform="scale(-1)" y="-54" x="-130" height="4" width="10" style="fill:none" id="north-active-tab-topleft" />
    <rect transform="scale(-1)" y="-54" x="-210" height="4" width="80" style="fill:none" id="north-active-tab-top" />
    <rect transform="scale(-1)" y="-54" x="-220" height="4" width="10" style="fill:none" id="north-active-tab-topright" />
    <rect transform="scale(-1)" y="-63" x="-220" height="5" width="6" style="fill:#ff00ff" id="north-focus-hint-right-margin" />
    <rect transform="scale(-1)" y="-63" x="-126" height="5" width="6" style="fill:#ff00ff" id="north-focus-hint-left-margin" />
    <g transform="matrix(1,0,0,0.66666667,90,-173.57479)" id="north-active-tab-bottom">
        <path d="m 40,359.36218 h 80 v 3 H 40 Z" class="ColorScheme-Highlight" style="fill:currentColor" id="path34" />
    </g>
    <rect transform="scale(-1)" y="-68" x="-166" height="8" width="5" style="fill:#ff00ff" id="north-focus-hint-bottom-margin" />
    <rect transform="scale(-1)" y="-54" x="-166" height="4" width="5" style="fill:#ff00ff" id="north-focus-hint-top-margin" />
    <g transform="matrix(1,0,0,0.66617489,90,-173.3966)" id="north-active-tab-bottomleft">
        <rect y="359.35999" x="30" height="3.0022147" width="10" style="fill:none;stroke-width:1.00037" id="rect39" />
        <path d="m 39.999989,359.36013 v 3.00207 C 36.590042,362.3622 33,362.36208 33,362.36208 c 0,0 -6e-6,-0.85296 -1.1e-5,-1.50092 4e-6,-0.61142 1.1e-5,-1.50117 1.1e-5,-1.50117 0,0 7,0 6.999989,1.4e-4 z" class="ColorScheme-Highlight" style="fill:currentColor;stroke-width:1.00035" id="path41" />
    </g>
    <g transform="matrix(1,0,0,0.66617489,-153,-85.461522)" id="north-active-tab-bottomright">
        <rect y="227.36" x="363" height="3.0022147" width="10" style="fill:none;stroke-width:1.00037" id="rect46" />
        <path d="m 363,227.36015 c 4.05485,-2e-5 7,-1.5e-4 7,-1.5e-4 0,0 0,1.01454 0,1.50116 0,0.61211 0,1.50092 0,1.50092 0,0 -3.44673,1.2e-4 -7,1.3e-4 z" class="ColorScheme-Highlight" style="fill:currentColor;stroke-width:1.00035" id="path48" />
    </g>
    <rect transform="scale(-1)" y="-96" x="-110" height="12" width="10" style="fill:none" id="east-active-tab-right" />
    <rect transform="scale(-1)" y="-96" x="-100" height="12" width="80" style="fill:none" id="east-active-tab-center" />
    <rect transform="scale(-1)" y="-96" x="-20" height="12" width="10" style="fill:none" id="east-active-tab-left" />
    <rect transform="scale(-1)" y="-84" x="-20" height="4" width="10" style="fill:none" id="east-active-tab-topleft" />
    <rect transform="scale(-1)" y="-84" x="-100" height="4" width="80" style="fill:none" id="east-active-tab-top" />
    <rect transform="scale(-1)" y="-84" x="-110" height="4" width="10" style="fill:none" id="east-active-tab-topright" />
    <rect transform="scale(-1)" y="-93" x="-110" height="5" width="6" style="fill:#ff00ff" id="east-focus-hint-right-margin" />
    <rect transform="scale(-1)" y="-93" x="-16" height="5" width="6" style="fill:#ff00ff" id="east-focus-hint-left-margin" />
    <g transform="matrix(1,0,0,0.66666667,-20,-143.57479)" id="east-active-tab-bottom">
        <path d="m 40,359.36218 h 80 v 3 H 40 Z" class="ColorScheme-Highlight" style="fill:currentColor" id="path59" />
    </g>
    <rect transform="scale(-1)" y="-98" x="-56" height="8" width="5" style="fill:#ff00ff" id="east-focus-hint-bottom-margin" />
    <rect transform="scale(-1)" y="-84" x="-56" height="4" width="5" style="fill:#ff00ff" id="east-focus-hint-top-margin" />
    <g transform="matrix(1,0,0,0.66617489,-20,-143.3966)" id="east-active-tab-bottomleft">
        <rect y="359.35999" x="30" height="3.0022147" width="10" style="fill:none;stroke-width:1.00037" id="rect64" />
        <path d="m 39.999989,359.36013 v 3.00207 C 36.590042,362.3622 33,362.36208 33,362.36208 c 0,0 -6e-6,-0.85296 -1.1e-5,-1.50092 4e-6,-0.61142 1.1e-5,-1.50117 1.1e-5,-1.50117 0,0 7,0 6.999989,1.4e-4 z" class="ColorScheme-Highlight" style="fill:currentColor;stroke-width:1.00035" id="path66" />
    </g>
    <g transform="matrix(1,0,0,0.66571926,-263,-55.35793)" id="east-active-tab-bottomright">
        <rect y="227.36" x="363" height="3.0042694" width="10" style="fill:none;stroke-width:1.00071" id="rect71" />
        <path d="m 363,227.36015 c 4.05485,-2e-5 7,-1.5e-4 7,-1.5e-4 0,0 0,1.01523 0,1.50219 0,0.61253 0,1.50195 0,1.50195 0,0 -3.44673,1.2e-4 -7,1.3e-4 z" class="ColorScheme-Highlight" style="fill:currentColor;stroke-width:1.00069" id="path73" />
    </g>
    <rect transform="scale(-1)" y="-96" x="-220" height="12" width="10" style="fill:none" id="west-active-tab-right" />
    <rect transform="scale(-1)" y="-96" x="-210" height="12" width="80" style="fill:none" id="west-active-tab-center" />
    <rect transform="scale(-1)" y="-96" x="-130" height="12" width="10" style="fill:none" id="west-active-tab-left" />
    <rect transform="scale(-1)" y="-84" x="-130" height="4" width="10" style="fill:none" id="west-active-tab-topleft" />
    <rect transform="scale(-1)" y="-84" x="-210" height="4" width="80" style="fill:none" id="west-active-tab-top" />
    <rect transform="scale(-1)" y="-84" x="-220" height="4" width="10" style="fill:none" id="west-active-tab-topright" />
    <rect transform="scale(-1)" y="-93" x="-220" height="5" width="6" style="fill:#ff00ff" id="west-focus-hint-right-margin" />
    <rect transform="scale(-1)" y="-93" x="-126" height="5" width="6" style="fill:#ff00ff" id="west-focus-hint-left-margin" />
    <g transform="matrix(1,0,0,0.66666667,90,-143.57479)" id="west-active-tab-bottom">
        <path d="m 40,359.36218 h 80 v 3 H 40 Z" class="ColorScheme-Highlight" style="fill:currentColor" id="path85" />
    </g>
    <rect transform="scale(-1)" y="-98" x="-166" height="8" width="5" style="fill:#ff00ff" id="west-focus-hint-bottom-margin" />
    <rect transform="scale(-1)" y="-84" x="-166" height="4" width="5" style="fill:#ff00ff" id="west-focus-hint-top-margin" />
    <g transform="matrix(1,0,0,0.66617489,90,-143.3966)" id="west-active-tab-bottomleft">
        <rect y="359.35999" x="30" height="3.0022147" width="10" style="fill:none;stroke-width:1.00037" id="rect90" />
        <path d="m 39.999989,359.36013 v 3.00207 C 36.590042,362.3622 33,362.36208 33,362.36208 c 0,0 -6e-6,-0.85296 -1.1e-5,-1.50092 4e-6,-0.61142 1.1e-5,-1.50117 1.1e-5,-1.50117 0,0 7,0 6.999989,1.4e-4 z" class="ColorScheme-Highlight" style="fill:currentColor;stroke-width:1.00035" id="path92" />
    </g>
    <g transform="matrix(1,0,0,0.66617489,-153,-55.461522)" id="west-active-tab-bottomright">
        <rect y="227.36" x="363" height="3.0022147" width="10" style="fill:none;stroke-width:1.00037" id="rect97" />
        <path d="m 363,227.36015 c 4.05485,-2e-5 7,-1.5e-4 7,-1.5e-4 0,0 0,1.01453 0,1.50116 0,0.61211 0,1.50092 0,1.50092 0,0 -3.44673,1.2e-4 -7,1.3e-4 z" class="ColorScheme-Highlight" style="fill:currentColor;stroke-width:1.00035" id="path99" />
    </g>
</svg>
