<?xml version="1.0" encoding="UTF-8" standalone="no"?>
<svg xmlns:dc="http://purl.org/dc/elements/1.1/" xmlns:cc="http://creativecommons.org/ns#" xmlns:rdf="http://www.w3.org/1999/02/22-rdf-syntax-ns#" xmlns:svg="http://www.w3.org/2000/svg" xmlns="http://www.w3.org/2000/svg" xmlns:sodipodi="http://sodipodi.sourceforge.net/DTD/sodipodi-0.dtd" xmlns:inkscape="http://www.inkscape.org/namespaces/inkscape" width="160" height="160" id="svg7080" sodipodi:version="0.32" inkscape:version="1.0 (4035a4fb49, 2020-05-01)" version="1.0" sodipodi:docname="viewitem.svg" inkscape:output_extension="org.inkscape.output.svgz.inkscape">
    <defs id="defs118" />
    <sodipodi:namedview id="base" pagecolor="#eff0f1" bordercolor="#666666" borderopacity="1.0" inkscape:pageopacity="1" inkscape:pageshadow="2" inkscape:zoom="3.7157813" inkscape:cx="162.09568" inkscape:cy="85.929254" inkscape:document-units="px" inkscape:current-layer="layer1" showgrid="true" inkscape:window-width="1920" inkscape:window-height="1017" inkscape:window-x="-8" inkscape:window-y="-8" inkscape:snap-global="true" inkscape:object-paths="false" inkscape:object-nodes="false" gridtolerance="3" inkscape:window-maximized="1" inkscape:snap-bbox="true" inkscape:bbox-nodes="true" inkscape:snap-grids="false" inkscape:snap-to-guides="false" inkscape:snap-nodes="false" inkscape:document-rotation="0">
        <inkscape:grid type="xygrid" id="grid7342" visible="true" enabled="true" empspacing="5" snapvisiblegridlinesonly="true" color="#0000ff" opacity="0.01960784" empcolor="#0000ff" empopacity="0.03921569" />
    </sodipodi:namedview>
    <style id="current-color-scheme" type="text/css">
        .ColorScheme-ButtonFocus {
            color: #1E92FF;
        }
    </style>
    <metadata id="metadata7085">
        <rdf:RDF>
            <cc:Work rdf:about="">
                <dc:format>image/svg+xml</dc:format>
                <dc:type rdf:resource="http://purl.org/dc/dcmitype/StillImage" />
                <dc:title></dc:title>
            </cc:Work>
        </rdf:RDF>
    </metadata>
    <g inkscape:groupmode="layer" id="layer1" transform="translate(297,-432)">
        <rect style="opacity:0.875;fill:#008000;fill-opacity:1;stroke:none" id="hint-tile-center" width="40" height="40" x="-247.07144" y="341.67673" />
        <path inkscape:connector-curvature="0" id="selected-center" d="m -272.92915,456.0158 v 48 h 48 v -48 z" style="opacity:0.8;fill:currentColor;fill-opacity:1;fill-rule:nonzero;stroke:none" class="ColorScheme-ButtonFocus" />
        <g transform="matrix(1,0,0,3.0009825,-463.072,-2034.3867)" id="selected-left">
            <path id="path4119" d="m 186.14285,829.85712 v 16 h 4 v -16 z" style="opacity:0.8;fill:currentColor;fill-rule:nonzero;stroke:none" inkscape:connector-curvature="0" class="ColorScheme-ButtonFocus" />
        </g>
        <g transform="translate(-463.072,-373.8571)" id="selected-topleft">
            <path style="opacity:0.8;fill:currentColor;fill-opacity:1;fill-rule:nonzero;stroke:none" d="m 186.14285,829.8571 h 4 v -4 h -1.46875 c -1.40502,0 -2.53125,1.11588 -2.53125,2.53125 z" id="path4131" inkscape:connector-curvature="0" class="ColorScheme-ButtonFocus" />
        </g>
        <g transform="matrix(0.36657704,0,0,1,-342.64116,-373.84132)" id="selected-top">
            <path style="opacity:0.8;fill:currentColor;fill-opacity:1;fill-rule:nonzero;stroke:none" d="m 190.14286,825.85714 v 4 h 131 v -4 z" id="path4143" inkscape:connector-curvature="0" class="ColorScheme-ButtonFocus" />
        </g>
        <g transform="translate(-546.072,-373.84132)" id="selected-topright">
            <path id="path4155" d="m 321.14285,825.85714 v 4 h 4 v -1.46875 c 0,-1.40502 -1.11588,-2.53125 -2.53125,-2.53125 z" style="opacity:0.8;fill:currentColor;fill-opacity:1;fill-rule:nonzero;stroke:none" inkscape:connector-curvature="0" class="ColorScheme-ButtonFocus" />
        </g>
        <g transform="matrix(1,0,0,3.0000017,-546.072,-2033.5569)" id="selected-right">
            <path style="opacity:0.8;fill:currentColor;fill-opacity:1;fill-rule:nonzero;stroke:none" d="m 325.14286,829.85712 v 16 h -4 v -16 z" id="path4167" inkscape:connector-curvature="0" class="ColorScheme-ButtonFocus" />
        </g>
        <path style="opacity:0;fill:#ffffff;fill-opacity:0.0784314;fill-rule:nonzero;stroke:none" d="m -202.9842,456.13194 v 48 h 48 v -48 z" id="normal-center" inkscape:connector-curvature="0" />
        <g id="normal-bottom" transform="matrix(0.36657704,0,0,0.49999749,-272.68041,81.205496)" style="opacity:0">
            <g id="g4980">
                <path inkscape:connector-curvature="0" style="opacity:0.822727;fill:#ffffff;fill-opacity:0.0784314;fill-rule:nonzero;stroke:none" d="m 190.12705,845.85714 v 4 l 130.9842,-0.0625 v -3.9375 z" id="path4983" />
                <path inkscape:connector-curvature="0" id="path4985" d="m 190.14285,849.85714 v 1 h 131 v -1 z" style="opacity:0.85;fill:#000000;fill-opacity:0.156863;fill-rule:nonzero;stroke:none" />
                <path style="fill:#ffffff;fill-opacity:0.156863;fill-rule:nonzero;stroke:none" d="m 190.14285,848.85714 v 1 h 131 v -1 z" id="path4987" inkscape:connector-curvature="0" sodipodi:nodetypes="ccccc" />
            </g>
            <rect style="opacity:0.521;fill:#ffffff;fill-opacity:0;stroke:none" id="rect4989" width="1" height="2.000037" x="547" y="869" transform="translate(-342.85715,-17.142857)" />
        </g>
        <g id="normal-bottomleft" transform="matrix(0.5714288,0,0,0.49999749,-311.6373,81.205486)" style="opacity:0">
            <g id="g4993">
                <path id="path4995" d="m 188.6741,850.85716 c -1.94821,0 -3.53125,-1.58839 -3.53125,-3.53125 v -1.46875 h 1 v 1.46875 c 0,1.40502 1.11588,2.53125 2.53125,2.53125 h 1.46875 v 1 z" style="opacity:0.85;fill:#000000;fill-opacity:0.156863;fill-rule:nonzero;stroke:none" inkscape:connector-curvature="0" />
                <path id="path4997" d="m 190.14285,849.8572 v -4 h -4 v 1.46875 c 0,1.40502 1.11588,2.53125 2.53125,2.53125 z" style="opacity:0.822727;fill:#ffffff;fill-opacity:0.0784314;fill-rule:nonzero;stroke:none" inkscape:connector-curvature="0" />
                <path style="fill:#ffffff;fill-opacity:0.156863;stroke:none" d="m 188.74285,849.85718 c -1.66084,0 -2.6,-1.19855 -2.6,-2.7 v -1.3 h 1 l -0.021,1.29373 c -0.0208,1.28062 0.23073,1.70627 1.62099,1.70627 h 1.4 v 1 z" id="path4999" inkscape:connector-curvature="0" sodipodi:nodetypes="ccccscccc" />
            </g>
            <rect style="opacity:0.521;fill:#ffffff;fill-opacity:0;stroke:none" id="rect5001" width="2.0000029" height="2.0000634" x="183.14285" y="851.85712" />
        </g>
        <g id="normal-left" transform="matrix(0.5714288,0,0,3.0009825,-311.6531,-2034.2706)" style="opacity:0">
            <g id="g5005">
                <path id="path5007" d="m 186.14285,829.85712 v 16 h 4 v -16 z" style="opacity:0.822727;fill:#ffffff;fill-opacity:0.0784314;fill-rule:nonzero;stroke:none" inkscape:connector-curvature="0" />
                <path style="opacity:0.85;fill:#000000;fill-opacity:0.156863;fill-rule:nonzero;stroke:none" d="m 185.14285,829.85715 v 15.99999 h 1 v -15.99999 z" id="path5009" inkscape:connector-curvature="0" />
                <path inkscape:connector-curvature="0" id="path5011" d="m 186.14285,829.85715 v 15.99999 h 1 v -15.99999 z" style="fill:#ffffff;fill-opacity:0.156863;fill-rule:nonzero;stroke:none" />
            </g>
            <rect style="opacity:0.521;fill:#ffffff;fill-opacity:0;stroke:none" id="rect5013" width="2.0000029" height="3" x="183.14285" y="834.85712" />
        </g>
        <g id="normal-topleft" transform="matrix(0.5714288,0,0,0.57143084,-311.6531,-18.089782)" style="opacity:0">
            <g id="g5017">
                <path style="opacity:0.822727;fill:#ffffff;fill-opacity:0.0784314;fill-rule:nonzero;stroke:none" d="m 186.14285,829.8571 h 4 v -4 h -1.46875 c -1.40502,0 -2.53125,1.11588 -2.53125,2.53125 z" id="path5019" inkscape:connector-curvature="0" />
                <path inkscape:connector-curvature="0" style="opacity:0.85;fill:#000000;fill-opacity:0.156863;fill-rule:nonzero;stroke:none" d="m 185.14285,828.3884 c 0,-1.94821 1.58839,-3.53125 3.53125,-3.53125 h 1.46875 v 1 h -1.46875 c -1.40502,0 -2.53125,1.11588 -2.53125,2.53125 v 1.46875 h -1 z" id="path5021" />
                <path id="path5023" d="m 186.14285,829.8571 h 1 v -1 c 0,-1.41537 0.59498,-2 2,-2 h 1 v -1 h -1.46875 c -1.40502,0 -2.53125,1.11588 -2.53125,2.53125 z" style="fill:#ffffff;fill-opacity:0.156863;fill-rule:nonzero;stroke:none" inkscape:connector-curvature="0" />
            </g>
            <rect style="opacity:0.521;fill:#ffffff;fill-opacity:0;stroke:none" id="rect5025" width="2.0000029" height="1.9999441" x="183.14285" y="822.85718" />
        </g>
        <g id="normal-top" transform="matrix(0.36657704,0,0,0.57143165,-272.69621,-18.074673)" style="opacity:0">
            <g id="g5029">
                <path style="opacity:0.822727;fill:#ffffff;fill-opacity:0.0784314;fill-rule:nonzero;stroke:none" d="m 190.14286,825.85714 v 4 h 131 v -4 z" id="path5031" inkscape:connector-curvature="0" />
                <path id="path5033" d="m 190.14285,824.85714 v 1 h 131 v -1 z" style="opacity:0.85;fill:#000000;fill-opacity:0.156863;fill-rule:nonzero;stroke:none" inkscape:connector-curvature="0" />
                <path inkscape:connector-curvature="0" style="fill:#ffffff;fill-opacity:0.156863;fill-rule:nonzero;stroke:none" d="m 190.14285,825.85714 v 1 h 131 v -1 z" id="path5035" />
            </g>
            <rect y="822.85718" x="200.14285" height="1.9999441" width="3" id="rect5037" style="opacity:0.521;fill:#ffffff;fill-opacity:0;stroke:none" />
        </g>
        <g id="normal-topright" transform="matrix(0.57142857,0,0,0.57143165,-338.4944,-18.074673)" style="opacity:0">
            <g id="g5041">
                <path id="path5043" d="m 321.14285,825.85714 v 4 h 4 v -1.46875 c 0,-1.40502 -1.11588,-2.53125 -2.53125,-2.53125 z" style="opacity:0.822727;fill:#ffffff;fill-opacity:0.0784314;fill-rule:nonzero;stroke:none" inkscape:connector-curvature="0" />
                <path id="path5045" d="m 322.6116,824.85714 c 1.94821,0 3.53125,1.58839 3.53125,3.53125 v 1.46875 h -1 v -1.46875 c 0,-1.40502 -1.11588,-2.53125 -2.53125,-2.53125 h -1.46875 v -1 z" style="opacity:0.85;fill:#000000;fill-opacity:0.156863;fill-rule:nonzero;stroke:none" inkscape:connector-curvature="0" />
                <path style="fill:#ffffff;fill-opacity:0.156863;fill-rule:nonzero;stroke:none" d="m 325.14285,829.8571 h -1 v -1 c 0,-1.41537 -0.59498,-2 -2,-2 h -1 v -1 h 1.46875 c 1.40502,0 2.53125,1.11588 2.53125,2.53125 z" id="path5047" inkscape:connector-curvature="0" sodipodi:nodetypes="ccssccssc" />
            </g>
            <rect style="opacity:0.521;fill:#ffffff;fill-opacity:0;stroke:none" id="rect5049" width="1.9999973" height="1.9999441" x="326.14285" y="822.85718" />
        </g>
        <g id="normal-right" transform="matrix(0.57142857,0,0,3.0000017,-338.4944,-2033.4408)" style="opacity:0">
            <g id="g5053">
                <path style="opacity:0.822727;fill:#ffffff;fill-opacity:0.0784314;fill-rule:nonzero;stroke:none" d="m 325.14286,829.85712 v 16 h -4 v -16 z" id="path5055" inkscape:connector-curvature="0" />
                <path id="path5057" d="m 326.14286,829.85715 v 15.99999 h -1 v -15.99999 z" style="opacity:0.85;fill:#000000;fill-opacity:0.156863;fill-rule:nonzero;stroke:none" inkscape:connector-curvature="0" />
                <path inkscape:connector-curvature="0" style="fill:#ffffff;fill-opacity:0.156863;fill-rule:nonzero;stroke:none" d="m 325.14285,829.85714 v 15.99999 h -1 v -15.99999 z" id="path5059" />
            </g>
            <rect y="832.85712" x="326.14285" height="3" width="1.9999973" id="rect5061" style="opacity:0.521;fill:#ffffff;fill-opacity:0;stroke:none" />
        </g>
        <g id="normal-bottomright" transform="matrix(0.57142857,0,0,0.49999749,-338.4786,81.205496)" style="opacity:0">
            <g id="g5065">
                <g id="g5067">
                    <path id="path5071" d="m 325.1429,845.85714 h -4 v 4 h 1.46875 c 1.40502,0 2.53125,-1.11588 2.53125,-2.53125 z" style="opacity:0.822727;fill:#ffffff;fill-opacity:0.0784314;fill-rule:nonzero;stroke:none" inkscape:connector-curvature="0" />
                    <path style="fill:#ffffff;fill-opacity:0.156863;stroke:none" d="m 322.14285,849.85714 c 1.59707,0 3,-0.57542 3,-2.99996 0,-0.94263 0,-1 0,-1 h -1 c 0,0.88676 0,0.28587 0,1 0,0.89359 -0.31679,1.99996 -2,1.99996 h -1 v 1 z" id="path5069" inkscape:connector-curvature="0" sodipodi:nodetypes="csccscccc" />
                    <path id="path5073" d="m 326.14286,847.32589 c 0,1.94821 -1.58839,3.53125 -3.53125,3.53125 h -1.46875 v -1 h 1.46875 c 1.40502,0 2.53125,-1.11588 2.53125,-2.53125 v -1.46875 h 1 z" style="opacity:0.852;fill:#000000;fill-opacity:0.156863;fill-rule:nonzero;stroke:none" inkscape:connector-curvature="0" />
                </g>
            </g>
            <rect style="opacity:0.521;fill:#ffffff;fill-opacity:0;stroke:none" id="rect5075" width="1.9999973" height="2.0000634" x="326.14285" y="851.85712" />
        </g>
        <path inkscape:connector-curvature="0" id="hover-center" d="m -273,526.22084 v 48 h 48 v -48 z" style="opacity:0.3;fill:currentColor;fill-opacity:1;fill-rule:nonzero;stroke:none" class="ColorScheme-ButtonFocus" />
        <g transform="matrix(1,0,0,3.0009825,-463.14285,-1964.1816)" id="hover-left">
            <path id="path4119-9" d="m 186.14285,829.85712 v 16 h 4 v -16 z" style="opacity:0.3;fill:currentColor;fill-rule:nonzero;stroke:none" inkscape:connector-curvature="0" class="ColorScheme-ButtonFocus" />
            <path class="ColorScheme-ButtonFocus" inkscape:connector-curvature="0" style="fill:currentColor;fill-rule:nonzero;stroke:none" d="m 186.14285,829.85712 v 16 h 1 v -16 z" id="path3175" />
        </g>
        <g transform="translate(-463.14285,-303.63654)" id="hover-topleft">
            <path class="ColorScheme-ButtonFocus" inkscape:connector-curvature="0" id="path3133" d="m 186.14285,829.8571 h 4 v -4 h -1.46875 c -1.40502,0 -2.53125,1.11588 -2.53125,2.53125 z" style="opacity:0.3;fill:currentColor;fill-opacity:1;fill-rule:nonzero;stroke:none" />
            <path style="fill:currentColor;fill-opacity:1;fill-rule:nonzero;stroke:none" d="M 43.53125,89.4375 C 42.12623,89.4375 41,90.55338 41,91.96875 v 1.46875 h 1 v -1.09375 c 0,-1.06153 0.85248,-1.90625 1.90625,-1.90625 H 45 v -1 z" transform="translate(145.14285,736.40462)" id="path3135" inkscape:connector-curvature="0" class="ColorScheme-ButtonFocus" />
        </g>
        <g transform="matrix(0.36657704,0,0,1,-342.71201,-303.63628)" id="hover-top">
            <path style="opacity:0.3;fill:currentColor;fill-opacity:1;fill-rule:nonzero;stroke:none" d="m 190.14286,825.85714 v 4 h 131 v -4 z" id="path4143-7" inkscape:connector-curvature="0" class="ColorScheme-ButtonFocus" />
            <path class="ColorScheme-ButtonFocus" inkscape:connector-curvature="0" id="path3131" d="m 190.14286,825.85684 v 1 h 131 v -1 z" style="fill:currentColor;fill-opacity:1;fill-rule:nonzero;stroke:none" />
        </g>
        <g transform="translate(-546.14285,-303.63628)" id="hover-topright">
            <path id="path4155-3" d="m 321.14285,825.85714 v 4 h 4 v -1.46875 c 0,-1.40502 -1.11588,-2.53125 -2.53125,-2.53125 z" style="opacity:0.3;fill:currentColor;fill-opacity:1;fill-rule:nonzero;stroke:none" inkscape:connector-curvature="0" class="ColorScheme-ButtonFocus" />
            <path style="fill:currentColor;fill-opacity:1;fill-rule:nonzero;stroke:none" d="m 322.6116,825.85684 c 1.40502,0 2.53125,1.11588 2.53125,2.53125 v 1.46875 h -1 v -1.09375 c 0,-1.06153 -0.85248,-1.90625 -1.90625,-1.90625 h -1.09375 v -1 z" id="path3135-4" inkscape:connector-curvature="0" class="ColorScheme-ButtonFocus" />
        </g>
        <g transform="matrix(1,0,0,3.0000017,-546.14285,-1963.3518)" id="hover-right">
            <path style="opacity:0.3;fill:currentColor;fill-opacity:1;fill-rule:nonzero;stroke:none" d="m 325.14286,829.85712 v 16 h -4 v -16 z" id="path4167-1" inkscape:connector-curvature="0" class="ColorScheme-ButtonFocus" />
            <path class="ColorScheme-ButtonFocus" inkscape:connector-curvature="0" id="path3157" d="m 325.14285,829.85713 v 15.99999 h -1 v -15.99999 z" style="fill:currentColor;fill-opacity:1;fill-rule:nonzero;stroke:none" />
        </g>
        <path inkscape:connector-curvature="0" id="selected+hover-center" d="m -203,526.0158 v 48 h 48 v -48 z" style="fill:currentColor;fill-opacity:1;fill-rule:nonzero;stroke:none" class="ColorScheme-ButtonFocus" />
        <g transform="matrix(1,0,0,3.0009825,-393.14285,-1964.3867)" id="selected+hover-left">
            <path id="path4119-9-6" d="m 186.14285,829.85712 v 16 h 4 v -16 z" style="fill:currentColor;fill-rule:nonzero;stroke:none" inkscape:connector-curvature="0" class="ColorScheme-ButtonFocus" />
        </g>
        <g transform="translate(-393.14285,-303.8571)" id="selected+hover-topleft">
            <path style="fill:currentColor;fill-opacity:1;fill-rule:nonzero;stroke:none" d="m 186.14285,829.8571 h 4 v -4 h -1.46875 c -1.40502,0 -2.53125,1.11588 -2.53125,2.53125 z" id="path4131-9-7" inkscape:connector-curvature="0" class="ColorScheme-ButtonFocus" />
        </g>
        <g transform="matrix(0.36657704,0,0,1,-272.71201,-303.84132)" id="selected+hover-top">
            <path style="fill:currentColor;fill-opacity:1;fill-rule:nonzero;stroke:none" d="m 190.14286,825.85714 v 4 h 131 v -4 z" id="path4143-7-8" inkscape:connector-curvature="0" class="ColorScheme-ButtonFocus" />
        </g>
        <g transform="translate(-476.14285,-303.84132)" id="selected+hover-topright">
            <path id="path4155-3-0" d="m 321.14285,825.85714 v 4 h 4 v -1.46875 c 0,-1.40502 -1.11588,-2.53125 -2.53125,-2.53125 z" style="fill:currentColor;fill-opacity:1;fill-rule:nonzero;stroke:none" inkscape:connector-curvature="0" class="ColorScheme-ButtonFocus" />
        </g>
        <g transform="matrix(1,0,0,3.0000017,-476.14285,-1963.5569)" id="selected+hover-right">
            <path style="fill:currentColor;fill-opacity:1;fill-rule:nonzero;stroke:none" d="m 325.14286,829.85712 v 16 h -4 v -16 z" id="path4167-1-9" inkscape:connector-curvature="0" class="ColorScheme-ButtonFocus" />
        </g>
        <g transform="rotate(180,-17.393148,666.93644)" id="selected-bottomright">
            <path style="opacity:0.8;fill:currentColor;fill-opacity:1;fill-rule:nonzero;stroke:none" d="m 186.14285,829.8571 h 4 v -4 h -1.46875 c -1.40502,0 -2.53125,1.11588 -2.53125,2.53125 z" id="path4131-3" inkscape:connector-curvature="0" class="ColorScheme-ButtonFocus" />
        </g>
        <g transform="matrix(-0.36657704,0,0,-1,-155.20555,1333.873)" id="selected-bottom">
            <path style="opacity:0.8;fill:currentColor;fill-opacity:1;fill-rule:nonzero;stroke:none" d="m 190.14286,825.85714 v 4 h 131 v -4 z" id="path4143-6" inkscape:connector-curvature="0" class="ColorScheme-ButtonFocus" />
        </g>
        <g transform="rotate(180,24.106852,666.93649)" id="selected-bottomleft">
            <path id="path4155-5" d="m 321.14285,825.85714 v 4 h 4 v -1.46875 c 0,-1.40502 -1.11588,-2.53125 -2.53125,-2.53125 z" style="opacity:0.8;fill:currentColor;fill-opacity:1;fill-rule:nonzero;stroke:none" inkscape:connector-curvature="0" class="ColorScheme-ButtonFocus" />
        </g>
        <g transform="rotate(180,-17.42857,702.03903)" id="hover-bottomright">
            <path class="ColorScheme-ButtonFocus" inkscape:connector-curvature="0" id="path3133-3" d="m 186.14285,829.8571 h 4 v -4 h -1.46875 c -1.40502,0 -2.53125,1.11588 -2.53125,2.53125 z" style="opacity:0.3;fill:currentColor;fill-opacity:1;fill-rule:nonzero;stroke:none" />
            <path style="fill:currentColor;fill-opacity:1;fill-rule:nonzero;stroke:none" d="M 43.53125,89.4375 C 42.12623,89.4375 41,90.55338 41,91.96875 v 1.46875 h 1 v -1.09375 c 0,-1.06153 0.85248,-1.90625 1.90625,-1.90625 H 45 v -1 z" transform="translate(145.14285,736.40462)" id="path3135-6" inkscape:connector-curvature="0" class="ColorScheme-ButtonFocus" />
        </g>
        <g transform="matrix(-0.36657704,0,0,-1,-155.2764,1404.0783)" id="hover-bottom">
            <path style="opacity:0.3;fill:currentColor;fill-opacity:1;fill-rule:nonzero;stroke:none" d="m 190.14286,825.85714 v 4 h 131 v -4 z" id="path4143-7-6" inkscape:connector-curvature="0" class="ColorScheme-ButtonFocus" />
            <path class="ColorScheme-ButtonFocus" inkscape:connector-curvature="0" id="path3131-8" d="m 190.14286,825.85684 v 1 h 131 v -1 z" style="fill:currentColor;fill-opacity:1;fill-rule:nonzero;stroke:none" />
        </g>
        <g transform="rotate(180,24.071425,702.03898)" id="hover-bottomleft">
            <path id="path4155-3-03" d="m 321.14285,825.85714 v 4 h 4 v -1.46875 c 0,-1.40502 -1.11588,-2.53125 -2.53125,-2.53125 z" style="opacity:0.3;fill:currentColor;fill-opacity:1;fill-rule:nonzero;stroke:none" inkscape:connector-curvature="0" class="ColorScheme-ButtonFocus" />
            <path style="fill:currentColor;fill-opacity:1;fill-rule:nonzero;stroke:none" d="m 322.6116,825.85684 c 1.40502,0 2.53125,1.11588 2.53125,2.53125 v 1.46875 h -1 v -1.09375 c 0,-1.06153 -0.85248,-1.90625 -1.90625,-1.90625 h -1.09375 v -1 z" id="path3135-4-1" inkscape:connector-curvature="0" class="ColorScheme-ButtonFocus" />
        </g>
        <g transform="rotate(180,17.57143,701.93647)" id="selected+hover-bottomright">
            <path style="fill:currentColor;fill-opacity:1;fill-rule:nonzero;stroke:none" d="m 186.14285,829.8571 h 4 v -4 h -1.46875 c -1.40502,0 -2.53125,1.11588 -2.53125,2.53125 z" id="path4131-9-7-7" inkscape:connector-curvature="0" class="ColorScheme-ButtonFocus" />
        </g>
        <g transform="matrix(-0.36657704,0,0,-1,-85.276402,1403.8729)" id="selected+hover-bottom">
            <path style="fill:currentColor;fill-opacity:1;fill-rule:nonzero;stroke:none" d="m 190.14286,825.85714 v 4 h 131 v -4 z" id="path4143-7-8-4" inkscape:connector-curvature="0" class="ColorScheme-ButtonFocus" />
        </g>
        <g transform="rotate(180,59.071425,701.93647)" id="selected+hover-bottomleft">
            <path id="path4155-3-0-0" d="m 321.14285,825.85714 v 4 h 4 v -1.46875 c 0,-1.40502 -1.11588,-2.53125 -2.53125,-2.53125 z" style="fill:currentColor;fill-opacity:1;fill-rule:nonzero;stroke:none" inkscape:connector-curvature="0" class="ColorScheme-ButtonFocus" />
        </g>
    </g>
</svg>
