<?xml version="1.0" encoding="UTF-8" standalone="no"?>
<svg xmlns:dc="http://purl.org/dc/elements/1.1/" xmlns:cc="http://creativecommons.org/ns#" xmlns:rdf="http://www.w3.org/1999/02/22-rdf-syntax-ns#" xmlns:svg="http://www.w3.org/2000/svg" xmlns="http://www.w3.org/2000/svg" xmlns:sodipodi="http://sodipodi.sourceforge.net/DTD/sodipodi-0.dtd" xmlns:inkscape="http://www.inkscape.org/namespaces/inkscape" viewBox="0 0 22 22" version="1.1" sodipodi:docname="device.svg" inkscape:version="1.0 (4035a4fb49, 2020-05-01)" id="svg">
    <metadata id="metadata28">
        <rdf:RDF>
            <cc:Work rdf:about="">
                <dc:format>image/svg+xml</dc:format>
                <dc:type rdf:resource="http://purl.org/dc/dcmitype/StillImage" />
                <dc:title></dc:title>
            </cc:Work>
        </rdf:RDF>
    </metadata>
    <sodipodi:namedview inkscape:document-rotation="0" showguides="false" showgrid="true" pagecolor="#c8c8c8" objecttolerance="10" inkscape:zoom="5.3636365" inkscape:window-y="-8" inkscape:window-x="-8" inkscape:window-width="1920" inkscape:window-maximized="1" inkscape:window-height="1017" inkscape:snap-smooth-nodes="true" inkscape:snap-nodes="true" inkscape:snap-midpoints="true" inkscape:snap-intersection-paths="true" inkscape:snap-bbox-edge-midpoints="true" inkscape:snap-bbox="true" inkscape:pageshadow="2" inkscape:pageopacity="0" inkscape:object-paths="true" inkscape:object-nodes="true" inkscape:cy="18.31461" inkscape:cx="22.985959" inkscape:current-layer="svg" inkscape:bbox-nodes="true" guidetolerance="10" gridtolerance="10" borderopacity="1" bordercolor="#666666" id="namedview33">
        <inkscape:grid type="xygrid" id="grid842" />
    </sodipodi:namedview>
    <style type="text/css" id="current-color-scheme">
        .ColorScheme-Text {
            color: #dedede;
        }
    </style>
    <g id="22-22-device-notifier">
        <rect style="opacity:0.2;fill:none;fill-opacity:1;stroke:none" id="rect4157" width="21.999985" height="21.999985" x="9.9999997e-06" y="1.2617187e-05" />
        <g id="g931" transform="translate(-20,1)">
            <rect y="4" x="29" height="1" width="1" id="rect845" class="ColorScheme-Text" fill="currentColor" style="opacity:1;fill-opacity:1;stroke:none;stroke-width:2;stroke-miterlimit:4;stroke-dasharray:none;stroke-opacity:1" />
            <rect y="4" x="31" height="1" width="1" id="rect847" class="ColorScheme-Text" fill="currentColor" style="opacity:1;fill-opacity:1;stroke:none;stroke-width:2;stroke-miterlimit:4;stroke-dasharray:none;stroke-opacity:1" />
            <rect transform="rotate(-45)" y="36.476658" x="10.606602" height="1" width="7" id="rect849" class="ColorScheme-Text" fill="currentColor" style="opacity:1;fill-opacity:1;stroke:none;stroke-width:3.05505037;stroke-miterlimit:4;stroke-dasharray:none;stroke-opacity:1" />
            <rect transform="rotate(45)" class="ColorScheme-Text" fill="currentColor" style="opacity:1;fill-opacity:1;stroke:none;stroke-width:2;stroke-miterlimit:4;stroke-dasharray:none;stroke-opacity:1" id="rect851" width="3" height="1" x="34.476658" y="-11.606602" />
            <path sodipodi:nodetypes="ccccccccccccc" inkscape:connector-curvature="0" id="rect903" d="m 26,6 v 13 h 7.292969 L 32.939453,18.646484 32.585938,18.292969 32.292969,18 H 27 V 7 h 7 v 9.878906 l 1,-1 V 6 Z" class="ColorScheme-Text" fill="currentColor" style="opacity:1;fill-opacity:1;stroke:none;stroke-width:1.89736664;stroke-miterlimit:4;stroke-dasharray:none;stroke-opacity:1" />
            <path id="rect908" d="m 27,2 v 5 h 7 V 2 Z m 1,1 h 5 v 3 h -5 z" class="ColorScheme-Text" fill="currentColor" style="opacity:1;fill-opacity:1;stroke:none;stroke-width:1;stroke-miterlimit:4;stroke-dasharray:none;stroke-opacity:1" inkscape:connector-curvature="0" />
        </g>
    </g>
    <g id="device-notifier">
        <rect style="opacity:0.2;fill:none;fill-opacity:1;stroke:none" id="rect4151" width="31.999985" height="31.999985" x="0" y="-35.999996" />
        <g id="g967" transform="translate(-18.000008)">
            <path id="rect840" d="m 28,-28 c -0.554,0 -1,0.446 -1,1 v 20 c 0,0.554 0.446,1 1,1 h 12 c 0.554,0 1,-0.446 1,-1 v -20 c 0,-0.554 -0.446,-1 -1,-1 z m 0,1 H 40 V -7 H 28 Z" class="ColorScheme-Text" fill="currentColor" style="opacity:1;fill-opacity:1;stroke:none;stroke-width:3.07846117;stroke-miterlimit:4;stroke-dasharray:none;stroke-opacity:1" inkscape:connector-curvature="0" />
            <path id="rect951" d="m 30,-34 c -0.554,0 -1,0.446 -1,1 v 5 c 0,0.554 0.446,1 1,1 h 8 c 0.554,0 1,-0.446 1,-1 v -5 c 0,-0.554 -0.446,-1 -1,-1 z m 0,1 h 8 v 5 h -8 z" class="ColorScheme-Text" fill="currentColor" style="opacity:1;fill-opacity:1;stroke:none;stroke-width:1.46759868;stroke-miterlimit:4;stroke-dasharray:none;stroke-opacity:1" inkscape:connector-curvature="0" />
            <rect y="-32" x="31" height="2" width="2" id="rect959" class="ColorScheme-Text" fill="currentColor" style="opacity:1;fill-opacity:1;stroke:none;stroke-width:1;stroke-miterlimit:4;stroke-dasharray:none;stroke-opacity:1" />
            <rect class="ColorScheme-Text" fill="currentColor" style="opacity:1;fill-opacity:1;stroke:none;stroke-width:1;stroke-miterlimit:4;stroke-dasharray:none;stroke-opacity:1" id="rect961" width="2" height="2" x="35" y="-32" />
        </g>
    </g>
    <g id="16-16-device-notifier">
        <rect y="26.000002" x="0" height="15.999985" width="15.999985" id="rect4182" style="opacity:0.2;fill:none;fill-opacity:1;stroke:none" />
        <g id="g999" transform="translate(-7.6293945e-6)">
            <path id="rect945" d="m 5,31 v 9 h 6 v -9 z m 1,1 h 4 v 7.076172 H 6 Z" class="ColorScheme-Text" fill="currentColor" style="opacity:1;fill-opacity:1;stroke:none;stroke-width:1.28900659;stroke-miterlimit:4;stroke-dasharray:none;stroke-opacity:1" inkscape:connector-curvature="0" />
            <path id="rect979" transform="translate(7.6293945e-6)" d="M 6 29 L 6 32 L 10 32 L 10 29 L 6 29 z M 7 30 L 9 30 L 9 31 L 7 31 L 7 30 z " class="ColorScheme-Text" fill="currentColor" style="opacity:1;fill-opacity:1;stroke:none;stroke-width:0.70164645;stroke-miterlimit:4;stroke-dasharray:none;stroke-opacity:1" />
        </g>
    </g>
</svg>
