<?xml version="1.0" encoding="UTF-8" standalone="no"?>
<svg xmlns:dc="http://purl.org/dc/elements/1.1/" xmlns:cc="http://creativecommons.org/ns#" xmlns:rdf="http://www.w3.org/1999/02/22-rdf-syntax-ns#" xmlns:svg="http://www.w3.org/2000/svg" xmlns="http://www.w3.org/2000/svg" xmlns:sodipodi="http://sodipodi.sourceforge.net/DTD/sodipodi-0.dtd" xmlns:inkscape="http://www.inkscape.org/namespaces/inkscape" viewBox="0 0 32.000004 32" sodipodi:docname="klipper.svg" height="32" width="32.000004" inkscape:version="1.0 (4035a4fb49, 2020-05-01)" version="1.1" id="svg4153">
    <metadata id="metadata4159">
        <rdf:RDF>
            <cc:Work rdf:about="">
                <dc:format>image/svg+xml</dc:format>
                <dc:type rdf:resource="http://purl.org/dc/dcmitype/StillImage" />
                <dc:title></dc:title>
            </cc:Work>
        </rdf:RDF>
    </metadata>
    <style id="current-color-scheme" type="text/css">
        .ColorScheme-Text {
            color: #ececec;
        }
    </style>
    <sodipodi:namedview inkscape:document-rotation="0" fit-margin-bottom="0" fit-margin-right="0" fit-margin-left="0" fit-margin-top="0" inkscape:current-layer="g831" inkscape:window-maximized="1" inkscape:window-y="-8" inkscape:window-x="-8" inkscape:cy="18.61241" inkscape:cx="41.459487" inkscape:zoom="8.109631" borderlayer="true" inkscape:showpageshadow="false" showgrid="true" inkscape:document-units="px" id="namedview4155" inkscape:window-height="1017" inkscape:window-width="1920" inkscape:pageshadow="2" inkscape:pageopacity="0" guidetolerance="10" gridtolerance="10000" objecttolerance="10" borderopacity="1" bordercolor="#666666" pagecolor="#ffffff">
        <inkscape:grid originy="5.000001" originx="5" id="grid4140" type="xygrid" />
        <sodipodi:guide inkscape:locked="false" id="guide4186" orientation="28,0" position="2,30" />
        <sodipodi:guide inkscape:locked="false" id="guide4188" orientation="0,28.000004" position="2,2" />
        <sodipodi:guide inkscape:locked="false" id="guide4190" orientation="-28,0" position="30.000004,2" />
        <sodipodi:guide inkscape:locked="false" id="guide4192" orientation="0,-28.000004" position="30.000004,30" />
        <sodipodi:guide inkscape:locked="false" id="guide4194" orientation="32,0" position="0,32" />
        <sodipodi:guide inkscape:locked="false" id="guide4196" orientation="0,32.000004" position="0,0" />
        <sodipodi:guide inkscape:locked="false" id="guide4198" orientation="-32,0" position="32.000004,0" />
        <sodipodi:guide inkscape:locked="false" id="guide4200" orientation="0,-32.000004" position="32.000004,32" />
    </sodipodi:namedview>
    <inkscape:clipboard max="22,22" min="0,0" style="opacity:0.01000001;fill:#00000f;fill-opacity:0;stroke-width:1;stroke-linecap:butt;stroke-linejoin:miter;stroke-miterlimit:4;stroke-dasharray:none;stroke-dashoffset:0;stroke-opacity:1;stroke:none" />
    <g transform="translate(49,4.999999)" id="22-22-klipper">
        <rect y="0" x="0" height="22" width="22" id="rect4148" style="opacity:1;fill:none;fill-opacity:1;stroke:none;stroke-width:0.1;stroke-linecap:square;stroke-linejoin:miter;stroke-miterlimit:4;stroke-dasharray:none;stroke-dashoffset:0;stroke-opacity:1" />
        <g transform="translate(3,3)" style="fill:#808080" id="g831">
            <path class="ColorScheme-Text" sodipodi:nodetypes="cccccccccccccccccccccccccccccccccccccccccccc" transform="translate(-52,-7.999999)" inkscape:connector-curvature="0" id="rect4202-3" d="m 57,9 v 1 H 56 54 V 23 H 66 V 10 H 64 63 V 9 Z m 1,1 h 4 v 1 h -4 z m -3,1 h 1 v 1 H 58 59.007812 64 v -1 h 1 v 9 1.999999 L 63,22 h -8 z m 7,9.999999 V 20 h -6 v 1 z M 56,14 v 1 h 6 v -1 z m 0,3 v 1 h 6 v -1 z" style="opacity:1;fill:currentColor;fill-opacity:1;stroke:none" />
            <path class="ColorScheme-Text" sodipodi:nodetypes="ccccc" style="opacity:1;fill:currentColor;fill-opacity:1;stroke:none;stroke-width:0.353553" d="m 11,6.000001 v 1 h 1 v -1 z" id="path848" inkscape:connector-curvature="0" />
            <path class="ColorScheme-Text" inkscape:connector-curvature="0" id="path850" d="m 11,9 v 1 h 1 V 9 Z" style="opacity:1;fill:currentColor;fill-opacity:1;stroke:none;stroke-width:0.353553" sodipodi:nodetypes="ccccc" />
            <path class="ColorScheme-Text" sodipodi:nodetypes="ccccc" style="opacity:1;fill:currentColor;fill-opacity:1;stroke:none;stroke-width:0.353553" d="m 11,12 v 1 h 1 v -1 z" id="path852" inkscape:connector-curvature="0" />
        </g>
    </g>
    <g id="klipper">
        <path class="ColorScheme-Text" sodipodi:nodetypes="ccccccccccccccccccccccccccccccccccccccccccccccc" inkscape:connector-curvature="0" style="opacity:1;fill:currentColor;fill-opacity:1;stroke:none" d="m 13.000002,4 0,2 -2,0 0,1 -5.0000001,0 0,21 20.0000001,0 0,-21 -5,0 0,-1 -2,0 0,-2 z m -6.0000001,4 4.0000001,0 0,1.3 10,0 0,-1.3 4,0 0,19 -18.0000001,0 z m 3.0000001,3 0,1 12,0 0,-1 z m 0,3 0,1 12,0 0,-1 z m 0,4 0,1 5,0 0,-1 z m 0,3 0,1 5,0 0,-1 z m 0,3 0,1 11,0 0,-1 z" id="rect4202" />
        <rect style="opacity:1;fill:none;fill-opacity:1;stroke:none" id="rect4230" width="32.000004" height="32" x="-2.8953547e-08" y="-1e-06" />
    </g>
</svg>
