<?xml version="1.0" encoding="UTF-8" standalone="no"?>
<svg xmlns:dc="http://purl.org/dc/elements/1.1/" xmlns:cc="http://creativecommons.org/ns#" xmlns:rdf="http://www.w3.org/1999/02/22-rdf-syntax-ns#" xmlns:svg="http://www.w3.org/2000/svg" xmlns="http://www.w3.org/2000/svg" xmlns:sodipodi="http://sodipodi.sourceforge.net/DTD/sodipodi-0.dtd" xmlns:inkscape="http://www.inkscape.org/namespaces/inkscape" version="1.1" viewBox="0 0 22 22" id="svg" sodipodi:docname="notification.svg" inkscape:version="1.0 (4035a4fb49, 2020-05-01)">
    <sodipodi:namedview inkscape:document-rotation="0" pagecolor="#ffffff" bordercolor="#666666" borderopacity="1" objecttolerance="10" gridtolerance="10" guidetolerance="10" inkscape:pageopacity="0" inkscape:pageshadow="2" inkscape:window-width="1920" inkscape:window-height="1017" id="namedview30" showgrid="true" inkscape:zoom="6.838044" inkscape:cx="25.506721" inkscape:cy="11.80514" inkscape:window-x="-8" inkscape:window-y="-8" inkscape:window-maximized="1" inkscape:current-layer="svg">
        <inkscape:grid type="xygrid" id="grid32" />
    </sodipodi:namedview>
    <metadata id="metadata40">
        <rdf:RDF>
            <cc:Work rdf:about="">
                <dc:format>image/svg+xml</dc:format>
                <dc:type rdf:resource="http://purl.org/dc/dcmitype/StillImage" />
                <dc:title></dc:title>
            </cc:Work>
        </rdf:RDF>
    </metadata>
    <style id="current-color-scheme" type="text/css">
        .ColorScheme-Text {
            color: #31363b;
        }
        .ColorScheme-Highlight {
            color: #3daee9;
        }
    </style>
    <g transform="translate(39,-1)" id="notification-progress-active">
        <path fill="none" d="M 1,1 H 23 V 23 H 1 Z" id="empty-rectangle" />
        <circle fill="currentColor" class="ColorScheme-Highlight" r="8" cy="12" cx="12" id="circle-blue" />
    </g>
    <g transform="translate(39,39)" id="notification-progress-inactive">
        <path fill="none" d="M 1,1 H 23 V 23 H 1 Z" id="path10" />
        <circle opacity="0.4" fill="currentColor" class="ColorScheme-Text" r="8" cy="12" cx="12" id="circle-transparent" />
    </g>
    <path fill="currentColor" class="ColorScheme-Text" d="m-18 23 2-2 2 2z" id="expander-bottom" />
    <path fill="currentColor" class="ColorScheme-Text" d="m-18 17 2 2 2-2z" id="expander-top" />
    <path fill="currentColor" class="ColorScheme-Text" d="m-13 18-2 2 2 2z" id="expander-right" />
    <path fill="currentColor" class="ColorScheme-Text" d="m-19 18 2 2-2 2z" id="expander-left" />
    <g transform="translate(39,-41)" id="notification-empty">
        <path fill="none" d="M 1,1 H 23 V 23 H 1 Z" id="path31" />
        <path fill="currentColor" class="ColorScheme-Text" d="m 12,4 a 8,8 0 0 0 -8,8 8,8 0 0 0 8,8 8,8 0 0 0 8,-8 8,8 0 0 0 -8,-8 z m 0,1 a 7,7 0 0 1 7,7 7,7 0 0 1 -7,7 7,7 0 0 1 -7,-7 7,7 0 0 1 7,-7 z" id="circle-outline" />
    </g>
    <g id="notification-disabled">
        <path d="m 0,-40 h 22 v 22 H 0 Z" id="path25" style="fill:none" />
        <g transform="translate(43,-21)" id="g974">
            <path d="m -40,-15 v 1 12 h 1 4.085938 L -32,0.9140625 -31.169922,0.08398437 c -0.20043,-0.28320632 -0.366542,-0.59041106 -0.498047,-0.91601562 L -32,-0.5 -34.5,-3 H -39 v -11 h 14 v 7.765625 c 0.38424,0.2586333 0.711424,0.5861819 1,0.9472656 V -14 -15 Z M -25.111328,-2.7675781 -25.378906,-2.5 l 0.267578,0.2675781 C -25.09901,-2.3341514 -25,-2.3946509 -25,-2.5 c 0,-0.1053491 -0.09901,-0.1658486 -0.111328,-0.2675781 z m -4.699219,0.078125 L -30,-2.5 c 0,0.1053491 0.09901,0.1658486 0.111328,0.2675781 L -29.621094,-2.5 Z" id="path906" sodipodi:nodetypes="cccccccccccccccccccccscccccc" class="ColorScheme-Text" fill="currentColor" />
            <path style="opacity:1;fill:#ff3232;fill-opacity:1;stroke:none;stroke-width:1.4;stroke-miterlimit:4;stroke-dasharray:none;stroke-opacity:1" d="M -27.5,-6 A 3.5,3.5 0 0 0 -31,-2.5 3.5,3.5 0 0 0 -27.5,1 3.5,3.5 0 0 0 -24,-2.5 3.5,3.5 0 0 0 -27.5,-6 Z m -1.414062,1.3789062 1.414062,1.4140626 1.414062,-1.4140626 0.707032,0.7070313 -1.414063,1.4140625 1.414063,1.4140625 -0.707032,0.70703125 L -27.5,-1.7929688 -28.914062,-0.37890625 -29.621094,-1.0859375 -28.207031,-2.5 -29.621094,-3.9140625 Z" id="circle914" />
        </g>
    </g>
    <g id="notification-inactive">
        <rect style="fill:#ffffff;fill-opacity:0;stroke:none" id="rect3028" width="22" height="22" x="0" y="0" />
        <path d="M 3,4 V 5 17 H 4 8.085937 L 11,19.914062 13.914062,17 H 18 19 V 5 4 Z M 4,5 H 18 V 16 H 13.5 L 11,18.5 8.5,16 H 4 Z" id="path3024" class="ColorScheme-Text" fill="currentColor" />
    </g>
    <g id="notification-active">
        <path d="M 0,40 H 22 V 62 H 0 Z" id="path14" style="fill:none" />
        <g transform="translate(25.5,2.542969)" id="g1029">
            <path class="ColorScheme-Text" id="path1023" d="m -22.5,41.457031 v 13 h 5.085937 L -14.5,57.371093 -11.585938,54.457031 H -6.5 v -13 z m 3,3 h 10 v 1 h -10 z m 0,3 h 10 v 1 h -10 z m 0,3 h 6 v 1 h -6 z" fill="currentColor" />
            <circle r="2" cy="42.457031" cx="-7.5" id="circle1025" class="ColorScheme-Highlight" fill="currentColor" />
        </g>
    </g>
</svg>
