<?xml version="1.0" encoding="UTF-8" standalone="no"?>
<svg
   xmlns:dc="http://purl.org/dc/elements/1.1/"
   xmlns:cc="http://creativecommons.org/ns#"
   xmlns:rdf="http://www.w3.org/1999/02/22-rdf-syntax-ns#"
   xmlns:svg="http://www.w3.org/2000/svg"
   xmlns="http://www.w3.org/2000/svg"
   xmlns:sodipodi="http://sodipodi.sourceforge.net/DTD/sodipodi-0.dtd"
   xmlns:inkscape="http://www.inkscape.org/namespaces/inkscape"
   inkscape:version="1.0 (4035a4fb49, 2020-05-01)"
   sodipodi:docname="notification-new.svg"
   id="svg"
   viewBox="0 0 22 22"
   version="1.1">
  <sodipodi:namedview
     inkscape:current-layer="svg"
     inkscape:window-maximized="1"
     inkscape:window-y="0"
     inkscape:window-x="0"
     inkscape:cy="11.80514"
     inkscape:cx="25.506721"
     inkscape:zoom="6.838044"
     showgrid="true"
     id="namedview30"
     inkscape:window-height="1010"
     inkscape:window-width="1920"
     inkscape:pageshadow="2"
     inkscape:pageopacity="0"
     guidetolerance="10"
     gridtolerance="10"
     objecttolerance="10"
     borderopacity="1"
     bordercolor="#666666"
     pagecolor="#ffffff">
    <inkscape:grid
       id="grid32"
       type="xygrid" />
  </sodipodi:namedview>
  <metadata
     id="metadata40">
    <rdf:RDF>
      <cc:Work
         rdf:about="">
        <dc:format>image/svg+xml</dc:format>
        <dc:type
           rdf:resource="http://purl.org/dc/dcmitype/StillImage" />
        <dc:title />
      </cc:Work>
    </rdf:RDF>
  </metadata>
  <defs
     id="defs38" />
  <style
     type="text/css"
     id="current-color-scheme">
      .ColorScheme-Text {
         color:#31363b;
         stop-color:#31363b;
      }
      .ColorScheme-Highlight {
         color:#3daee9;
         stop-color:#3daee9;
      }
    </style>
  <g
     id="notification-progress-active"
     transform="translate(39,-1)">
    <path
       id="empty-rectangle"
       d="M 1,1 H 23 V 23 H 1 Z"
       fill="none" />
    <circle
       id="circle-blue"
       cx="12"
       cy="12"
       r="8"
       class="ColorScheme-Highlight"
       fill="currentColor" />
  </g>
  <g
     id="notification-progress-inactive"
     transform="translate(39,39)">
    <path
       id="path10"
       d="M 1,1 H 23 V 23 H 1 Z"
       fill="none" />
    <circle
       id="circle-transparent"
       cx="12"
       cy="12"
       r="8"
       class="ColorScheme-Text"
       fill="currentColor"
       opacity="0.4" />
  </g>
  <path
     id="expander-bottom"
     d="m-18 23 2-2 2 2z"
     class="ColorScheme-Text"
     fill="currentColor" />
  <path
     id="expander-top"
     d="m-18 17 2 2 2-2z"
     class="ColorScheme-Text"
     fill="currentColor" />
  <path
     id="expander-right"
     d="m-13 18-2 2 2 2z"
     class="ColorScheme-Text"
     fill="currentColor" />
  <path
     id="expander-left"
     d="m-19 18 2 2-2 2z"
     class="ColorScheme-Text"
     fill="currentColor" />
  <g
     id="notification-empty"
     transform="translate(39,-41)">
    <path
       id="path31"
       d="M 1,1 H 23 V 23 H 1 Z"
       fill="none" />
    <path
       id="circle-outline"
       d="m 12,4 a 8,8 0 0 0 -8,8 8,8 0 0 0 8,8 8,8 0 0 0 8,-8 8,8 0 0 0 -8,-8 z m 0,1 a 7,7 0 0 1 7,7 7,7 0 0 1 -7,7 7,7 0 0 1 -7,-7 7,7 0 0 1 7,-7 z"
       class="ColorScheme-Text"
       fill="currentColor" />
  </g>
  <g
     id="notification-disabled">
    <path
       style="fill:none"
       id="path25"
       d="m 0,-40 h 22 v 22 H 0 Z" />
    <g
       id="g974"
       transform="translate(43,-21)">
      <path
         fill="currentColor"
         class="ColorScheme-Text"
         sodipodi:nodetypes="cccccccccccccccccccccscccccc"
         id="path906"
         d="m -40,-15 v 1 12 h 1 4.085938 L -32,0.9140625 -31.169922,0.08398437 c -0.20043,-0.28320632 -0.366542,-0.59041106 -0.498047,-0.91601562 L -32,-0.5 -34.5,-3 H -39 v -11 h 14 v 7.765625 c 0.38424,0.2586333 0.711424,0.5861819 1,0.9472656 V -14 -15 Z M -25.111328,-2.7675781 -25.378906,-2.5 l 0.267578,0.2675781 C -25.09901,-2.3341514 -25,-2.3946509 -25,-2.5 c 0,-0.1053491 -0.09901,-0.1658486 -0.111328,-0.2675781 z m -4.699219,0.078125 L -30,-2.5 c 0,0.1053491 0.09901,0.1658486 0.111328,0.2675781 L -29.621094,-2.5 Z" />
      <path
         id="circle914"
         d="M -27.5,-6 A 3.5,3.5 0 0 0 -31,-2.5 3.5,3.5 0 0 0 -27.5,1 3.5,3.5 0 0 0 -24,-2.5 3.5,3.5 0 0 0 -27.5,-6 Z m -1.414062,1.3789062 1.414062,1.4140626 1.414062,-1.4140626 0.707032,0.7070313 -1.414063,1.4140625 1.414063,1.4140625 -0.707032,0.70703125 L -27.5,-1.7929688 -28.914062,-0.37890625 -29.621094,-1.0859375 -28.207031,-2.5 -29.621094,-3.9140625 Z"
         style="opacity:1;fill:#ff3232;fill-opacity:1;stroke:none;stroke-width:1.4;stroke-miterlimit:4;stroke-dasharray:none;stroke-opacity:1" />
    </g>
  </g>
  <g
     id="notification-inactive">
    <rect
       y="0"
       x="0"
       height="22"
       width="22"
       id="rect3028"
       style="fill:#ffffff;fill-opacity:0;stroke:none" />
    <path
       fill="currentColor"
       class="ColorScheme-Text"
       id="path3024"
       d="M 3,4 V 5 17 H 4 8.085937 L 11,19.914062 13.914062,17 H 18 19 V 5 4 Z M 4,5 H 18 V 16 H 13.5 L 11,18.5 8.5,16 H 4 Z" />
  </g>
  <g
     id="notification-active">
    <path
       style="fill:none"
       id="path14"
       d="M 0,40 H 22 V 62 H 0 Z" />
    <g
       id="g1029"
       transform="translate(25.5,2.542969)">
      <path
         fill="currentColor"
         d="m -22.5,41.457031 v 13 h 5.085937 L -14.5,57.371093 -11.585938,54.457031 H -6.5 v -13 z m 3,3 h 10 v 1 h -10 z m 0,3 h 10 v 1 h -10 z m 0,3 h 6 v 1 h -6 z"
         id="path1023"
         class="ColorScheme-Text" />
      <circle
         fill="currentColor"
         class="ColorScheme-Highlight"
         id="circle1025"
         cx="-7.5"
         cy="42.457031"
         r="2" />
    </g>
  </g>
</svg>
