<?xml version="1.0" encoding="UTF-8" standalone="no"?>
<svg xmlns:osb="http://www.openswatchbook.org/uri/2009/osb" xmlns:dc="http://purl.org/dc/elements/1.1/" xmlns:cc="http://creativecommons.org/ns#" xmlns:rdf="http://www.w3.org/1999/02/22-rdf-syntax-ns#" xmlns:svg="http://www.w3.org/2000/svg" xmlns="http://www.w3.org/2000/svg" xmlns:xlink="http://www.w3.org/1999/xlink" xmlns:sodipodi="http://sodipodi.sourceforge.net/DTD/sodipodi-0.dtd" xmlns:inkscape="http://www.inkscape.org/namespaces/inkscape" sodipodi:docname="video.svg" inkscape:version="1.0 (4035a4fb49, 2020-05-01)" id="svg" viewBox="0 0 22 22" height="100%" width="100%" version="1.1">
    <sodipodi:namedview inkscape:document-rotation="0" inkscape:snap-bbox-edge-midpoints="true" inkscape:bbox-nodes="true" inkscape:bbox-paths="true" inkscape:snap-bbox-midpoints="true" inkscape:snap-bbox="true" inkscape:current-layer="video-display-brightness" inkscape:window-maximized="1" inkscape:window-y="-8" inkscape:window-x="-8" inkscape:cy="40.320801" inkscape:cx="0.067390871" inkscape:zoom="5.6568543" showgrid="true" id="namedview13" inkscape:window-height="1017" inkscape:window-width="1920" inkscape:pageshadow="2" inkscape:pageopacity="0" guidetolerance="10" gridtolerance="10" objecttolerance="10" borderopacity="1" bordercolor="#666666" pagecolor="#ffffff">
        <inkscape:grid snapvisiblegridlinesonly="true" enabled="true" visible="true" empspacing="4" id="grid2990" type="xygrid" />
    </sodipodi:namedview>
    <style id="current-color-scheme" type="text/css">
        .ColorScheme-Text {
            color: S#7B7C7E;
        }
    </style>
    <metadata id="metadata34">
        <rdf:RDF>
            <cc:Work rdf:about="">
                <dc:format>image/svg+xml</dc:format>
                <dc:type rdf:resource="http://purl.org/dc/dcmitype/StillImage" />
                <dc:title></dc:title>
            </cc:Work>
        </rdf:RDF>
    </metadata>
    <g transform="matrix(0.75000099,0,0,0.75000099,-289.42897,-387.59902)" id="22-22-video-display-brightness">
        <rect y="516.79803" x="385.90479" height="29.333271" width="29.333307" id="rect3074" style="opacity:0.01000001;fill:#00000f;fill-opacity:0.00392157;stroke:none" />
        <path style="fill-opacity:1;stroke-width:1.33333158" class="ColorScheme-Text" fill="currentColor" inkscape:connector-curvature="0" d="m 401.2381,524.79801 a 6.6666579,6.6666579 0 1 0 0,13.33331 6.6666579,6.6666579 0 0 0 0,-13.33331 z m 0,1.33333 v 10.66665 a 5.3333263,5.3333263 0 0 1 0,-10.66665 z m 0.66666,-5.33333 h -1.33333 v 2.66666 h 1.33333 z m 6.40399,2.65333 -1.88399,1.88533 0.94266,0.94267 1.88533,-1.88533 z m -14.14131,0 -0.94267,0.94267 1.88533,1.88399 0.94267,-0.94266 z m 17.73731,7.34666 h -2.66666 v 1.33333 h 2.66666 z m -18.66664,0 h -2.66667 v 1.33333 h 2.66667 z m 14.12798,5.85199 -0.94267,0.94267 1.88533,1.88533 0.94267,-0.94267 z m -12.25599,0 -1.88533,1.88533 0.94267,0.94267 1.88533,-1.88533 z m 6.79466,2.81333 h -1.33333 v 2.66666 h 1.33333 z" id="path839-4" />
    </g>
    <g id="video-display-brightness" transform="matrix(1.09091,0,0,1.09091,-420.98739,-597.79142)">
        <rect style="opacity:0.01;fill:#00000f;fill-opacity:0.00392157;stroke:none" id="rect3018" width="29.333307" height="29.333271" x="385.90479" y="516.79803" />
        <path id="path839" d="m 400.57145,524.60029 a 6.8749997,6.87543 0 1 0 0,13.75086 6.8749997,6.87543 0 0 0 0,-13.75086 z m 0,1.37508 v 11.00068 a 5.4999985,5.5003429 0 0 1 0,-11.00068 z m 0.68749,-5.50033 h -1.375 v 2.75016 h 1.375 z m 6.60413,2.73642 -1.94288,1.94436 0.97212,0.97219 1.94426,-1.94437 z m -14.58325,0 -0.97212,0.97218 1.94424,1.94299 0.97212,-0.97219 z m 18.29161,7.57669 h -2.75 v 1.37511 h 2.75 z m -19.24999,0 h -2.74999 v 1.37511 h 2.74999 z m 14.56949,6.03526 -0.97212,0.9722 1.94426,1.94437 0.97212,-0.97219 z m -12.63899,0 -1.94424,1.94438 0.97212,0.97219 1.94424,-1.94437 z m 7.007,2.90145 h -1.375 v 2.75016 h 1.375 z" class="ColorScheme-Text" fill="currentColor" inkscape:connector-curvature="0" style="fill-opacity:1;stroke-width:1.37504" />
    </g>
</svg>
